<svg width="104" height="25" viewBox="0 0 104 25" fill="none" xmlns="http://www.w3.org/2000/svg">
<path d="M0.188143 17.5948C-0.212422 16.9223 0.0642039 16.051 0.779291 15.7327L7.11277 12.9137C7.49559 12.7434 7.93691 12.7669 8.29939 12.9772L11.9184 15.076C12.279 15.2851 12.5181 15.6537 12.5622 16.0682L13.3011 23.0275C13.3835 23.8035 12.7716 24.4782 11.9913 24.4718L9.06359 24.4477C8.27571 24.4413 7.6728 23.744 7.7801 22.9635L8.36554 18.7044C8.41357 18.3551 8.24509 18.0114 7.93949 17.8355C7.63349 17.6592 7.25116 17.6863 6.97305 17.9039L3.63888 20.5125C3.01903 20.9975 2.11427 20.8283 1.7115 20.1522L0.188143 17.5948Z" fill="white"/>
<path fill-rule="evenodd" clip-rule="evenodd" d="M13.9419 14.8855L19.5387 19.0025C19.8556 19.2356 20.3051 19.1377 20.4965 18.794L21.9469 16.1885C22.1379 15.8454 21.9851 15.4126 21.6211 15.2653L17.6556 13.6611C17.0813 13.4287 16.7054 12.8712 16.7054 12.2517C16.7054 11.6361 17.0766 11.0813 17.6456 10.8464L21.625 9.2037C21.9872 9.05417 22.1372 8.62156 21.9452 8.27992L20.5 5.70813C20.3078 5.36608 19.8596 5.26946 19.5435 5.50194L13.9419 9.62228C13.7745 9.74538 13.6757 9.94073 13.6757 10.1485V14.3593C13.6757 14.5671 13.7745 14.7624 13.9419 14.8855ZM13.5548 15.4117C13.2201 15.1655 13.0225 14.7748 13.0225 14.3593V10.1485C13.0225 9.73299 13.2202 9.34228 13.5548 9.0961L19.1565 4.97575C19.7886 4.5108 20.6851 4.70405 21.0695 5.38813L22.5147 7.95993C22.8986 8.6432 22.5987 9.50842 21.8742 9.80748L17.8949 11.4502C17.5703 11.5841 17.3586 11.9006 17.3586 12.2517C17.3586 12.605 17.573 12.923 17.9006 13.0555L21.8661 14.6598C22.5941 14.9543 22.8996 15.82 22.5176 16.5062L21.0672 19.1117C20.6845 19.7992 19.7855 19.9949 19.1517 19.5286L13.5548 15.4117Z" fill="#2DEBFC"/>
<path d="M11.9185 9.38375C12.2791 9.17465 12.5182 8.80605 12.5622 8.39158L13.2999 1.44435C13.3827 0.664014 12.7638 -0.0127738 11.9792 0.000183035L9.05117 0.0485359C8.26771 0.0614737 7.6718 0.756401 7.77851 1.53267L8.36542 5.80245C8.41357 6.15273 8.24461 6.49724 7.93818 6.67362C7.63275 6.84942 7.25137 6.82327 6.97279 6.60742L3.59287 3.98858C2.97152 3.50715 2.0688 3.67945 1.66846 4.35588L0.182533 6.86653C-0.215377 7.53885 0.0618353 8.40778 0.775578 8.72545L7.11286 11.546C7.49568 11.7164 7.937 11.6928 8.29948 11.4826L11.9185 9.38375Z" fill="#2C85FC"/>
<path d="M42.847 11.1423V19.6446H46.0105V8.80922H41.4034V11.1423H42.847Z" fill="white"/>
<path d="M42.7479 7.28677C43.038 7.58988 43.4795 7.74146 44.0726 7.74146C44.6661 7.74146 45.1008 7.58988 45.3774 7.28677C45.6678 6.97029 45.8124 6.57484 45.8124 6.10042C45.8124 5.61264 45.6678 5.21716 45.3774 4.91407C45.1008 4.59772 44.6661 4.43948 44.0726 4.43948C43.4795 4.43948 43.038 4.59772 42.7479 4.91407C42.4713 5.21716 42.3328 5.61264 42.3328 6.10042C42.3328 6.57484 42.4713 6.97029 42.7479 7.28677Z" fill="white"/>
<path d="M67.4443 19.594C67.7344 19.8971 68.1759 20.0487 68.769 20.0487C69.3625 20.0487 69.7972 19.8971 70.0738 19.594C70.3642 19.2775 70.5088 18.882 70.5088 18.4076C70.5088 17.9198 70.3642 17.5244 70.0738 17.2213C69.7972 16.9049 69.3625 16.7467 68.769 16.7467C68.1759 16.7467 67.7344 16.9049 67.4443 17.2213C67.1677 17.5244 67.0292 17.9198 67.0292 18.4076C67.0292 18.882 67.1677 19.2775 67.4443 19.594Z" fill="white"/>
<path d="M31.834 19.4071C32.7302 19.8157 33.8308 20.0202 35.1356 20.0202C36.3617 20.0202 37.4159 19.8291 38.2994 19.4466C39.1825 19.0645 39.8612 18.5305 40.3358 17.8453C40.8237 17.1464 41.0673 16.3358 41.0673 15.4131C41.0673 14.5168 40.8371 13.7588 40.3756 13.1392C39.9272 12.5066 39.3014 12.0122 38.497 11.6564C37.6929 11.2873 36.7637 11.0566 35.7091 10.9644L34.6019 10.8655C33.9428 10.8127 33.4683 10.6349 33.1783 10.3316C32.8883 10.0285 32.7432 9.6725 32.7432 9.26399C32.7432 8.94748 32.8226 8.65758 32.9804 8.39395C33.1388 8.11709 33.3759 7.89964 33.6923 7.7414C34.0219 7.58329 34.4239 7.50419 34.8985 7.50419C35.3992 7.50419 35.8146 7.59636 36.1441 7.78102C36.2167 7.82005 36.2856 7.86175 36.3502 7.90601L36.3659 7.91698C36.3901 7.93371 36.4139 7.95105 36.4371 7.96855C36.6373 8.12157 36.7967 8.30289 36.9153 8.51254C37.0864 8.80263 37.1726 9.12547 37.1726 9.48144H40.3358C40.3358 8.5323 40.1182 7.70845 39.6835 7.00988C39.2485 6.29808 38.6224 5.75106 37.8052 5.36867C37.0008 4.97322 36.0321 4.7755 34.8985 4.7755C33.8174 4.7755 32.8817 4.96016 32.0907 5.32919C31.3 5.68515 30.6804 6.19922 30.2323 6.87137C29.797 7.54368 29.5795 8.34127 29.5795 9.26399C29.5795 10.5425 30.0083 11.5706 30.865 12.3485C31.7216 13.1262 32.8687 13.5743 34.3054 13.6929L35.393 13.7918C36.2758 13.8709 36.9153 14.0489 37.3108 14.3256C37.706 14.5892 37.9039 14.9517 37.9039 15.4131C37.9039 15.6251 37.8693 15.824 37.7997 16.0098C37.7481 16.1476 37.6775 16.2783 37.5877 16.4017C37.3764 16.6787 37.0668 16.8959 36.6582 17.0543C36.2496 17.2124 35.7421 17.2914 35.1356 17.2914C34.4635 17.2914 33.9164 17.1993 33.4948 17.0148C33.0728 16.8168 32.7566 16.5598 32.5453 16.2437C32.3477 15.9271 32.2491 15.5845 32.2491 15.2154H29.1052C29.1052 16.1512 29.3358 16.9818 29.797 17.7068C30.2585 18.4185 30.9375 18.9855 31.834 19.4071Z" fill="white"/>
<path d="M74.6572 19.4071C75.5534 19.8157 76.654 20.0202 77.9588 20.0202C79.1848 20.0202 80.2391 19.8291 81.1226 19.4466C82.0057 19.0645 82.6844 18.5305 83.1589 17.8453C83.6469 17.1464 83.8905 16.3358 83.8905 15.4131C83.8905 14.5168 83.6603 13.7588 83.1988 13.1392C82.7504 12.5066 82.1246 12.0122 81.3202 11.6564C80.5161 11.2873 79.5869 11.0566 78.5323 10.9644L77.4251 10.8655C76.766 10.8127 76.2915 10.6349 76.0015 10.3316C75.7114 10.0285 75.5664 9.6725 75.5664 9.26399C75.5664 8.94748 75.6458 8.65758 75.8035 8.39395C75.9619 8.11709 76.199 7.89964 76.5155 7.7414C76.8451 7.58329 77.2471 7.50419 77.7217 7.50419C78.2223 7.50419 78.6378 7.59636 78.9673 7.78102C79.0398 7.82005 79.1087 7.86175 79.1734 7.90601L79.1891 7.91698C79.2133 7.93371 79.2371 7.95105 79.2603 7.96855C79.4605 8.12157 79.6199 8.30289 79.7384 8.51254C79.9096 8.80263 79.9958 9.12547 79.9958 9.48144H83.1589C83.1589 8.5323 82.9414 7.70845 82.5067 7.00988C82.0717 6.29808 81.4456 5.75106 80.6284 5.36867C79.824 4.97322 78.8553 4.7755 77.7217 4.7755C76.6406 4.7755 75.7049 4.96016 74.9139 5.32919C74.1232 5.68515 73.5036 6.19922 73.0555 6.87137C72.6201 7.54368 72.4026 8.34127 72.4026 9.26399C72.4026 10.5425 72.8315 11.5706 73.6881 12.3485C74.5448 13.1262 75.6918 13.5743 77.1286 13.6929L78.2161 13.7918C79.0989 13.8709 79.7384 14.0489 80.134 14.3256C80.5291 14.5892 80.7271 14.9517 80.7271 15.4131C80.7271 15.6251 80.6924 15.824 80.6229 16.0098C80.5713 16.1476 80.5007 16.2783 80.4109 16.4017C80.1996 16.6787 79.89 16.8959 79.4814 17.0543C79.0728 17.2124 78.5653 17.2914 77.9588 17.2914C77.2866 17.2914 76.7396 17.1993 76.3179 17.0148C75.896 16.8168 75.5798 16.5598 75.3685 16.2437C75.1709 15.9271 75.0723 15.5845 75.0723 15.2154H71.9284C71.9284 16.1512 72.159 16.9818 72.6202 17.7068C73.0816 18.4185 73.7606 18.9855 74.6572 19.4071Z" fill="white"/>
<path d="M53.0691 19.7827C51.975 19.7827 51.0919 19.6511 50.4197 19.3872C49.7472 19.1106 49.2531 18.6559 48.9366 18.0233C48.6335 17.3773 48.482 16.5072 48.482 15.4131V11.1225H46.8408V8.80916H48.482V5.88287H51.4279V8.80916H54.5917V11.1225H51.4279V15.5318C51.4279 16.0459 51.5599 16.4413 51.8235 16.7179C52.1001 16.9818 52.4891 17.1134 52.9901 17.1134H54.5917V19.7827H53.0691Z" fill="white"/>
<path d="M102.325 19.7827C101.231 19.7827 100.348 19.6511 99.6758 19.3872C99.0033 19.1106 98.5091 18.6559 98.1927 18.0233C97.8896 17.3773 97.738 16.5072 97.738 15.4131V11.1225H96.0969V8.80916H97.738V5.88287H100.684V8.80916H103.848V11.1225H100.684V15.5318C100.684 16.0459 100.816 16.4413 101.079 16.7179C101.356 16.9818 101.745 17.1134 102.246 17.1134H103.848V19.7827H102.325Z" fill="white"/>
<path fill-rule="evenodd" clip-rule="evenodd" d="M58.4006 19.5457C59.1122 19.8621 59.9297 20.0202 60.8524 20.0202C61.7616 20.0202 62.566 19.8621 63.2646 19.5457C63.9632 19.2292 64.5433 18.7876 65.0044 18.221C65.4659 17.654 65.7759 17.0083 65.9336 16.2832H63.0272C62.8956 16.6128 62.6451 16.8894 62.276 17.1135C61.9069 17.3378 61.4321 17.4499 60.8524 17.4499C60.4931 17.4499 60.172 17.4074 59.8892 17.3222C59.674 17.2575 59.481 17.1683 59.3101 17.0543C58.9146 16.7908 58.6246 16.4214 58.4401 15.9471C58.3888 15.812 58.345 15.6706 58.3081 15.5233C58.2706 15.3741 58.2402 15.2189 58.2173 15.0573H66.1315V13.9896C66.1315 13.001 65.9206 12.0914 65.4989 11.2611C65.0769 10.4173 64.4639 9.73847 63.6601 9.2244C62.8691 8.69714 61.8936 8.4335 60.7335 8.4335C59.8503 8.4335 59.0593 8.59174 58.3607 8.90809C57.6758 9.21117 57.1023 9.62638 56.6408 10.1536C56.1797 10.6809 55.8237 11.2808 55.5728 11.9531C55.3357 12.612 55.2172 13.304 55.2172 14.0291V14.4245C55.2172 15.1233 55.3357 15.8086 55.5728 16.4808C55.8237 17.1399 56.1797 17.7396 56.6408 18.2801C57.1154 18.8075 57.7016 19.2292 58.4006 19.5457ZM58.2719 13.1022C58.2807 13.0603 58.2898 13.0191 58.3 12.9785C58.3274 12.8667 58.3591 12.7596 58.395 12.6572C58.4153 12.599 58.4368 12.5421 58.46 12.4869C58.6576 11.9991 58.9476 11.6301 59.3297 11.3796C59.4728 11.286 59.6276 11.2099 59.7938 11.1513C60.0734 11.0531 60.3869 11.004 60.7335 11.004C61.2743 11.004 61.7221 11.1292 62.0781 11.3796C62.4471 11.6169 62.7241 11.9662 62.9086 12.4275C62.9237 12.4647 62.9377 12.5027 62.9514 12.541C62.9733 12.6021 62.9936 12.6649 63.0125 12.7292C63.0403 12.8249 63.0648 12.9239 63.0863 13.0263C63.102 13.1017 63.1154 13.1789 63.1275 13.2581H58.2415C58.2506 13.2052 58.2608 13.1533 58.2719 13.1022Z" fill="white"/>
<path fill-rule="evenodd" clip-rule="evenodd" d="M87.8492 19.5457C88.5608 19.8621 89.3783 20.0202 90.301 20.0202C91.2102 20.0202 92.0146 19.8621 92.7132 19.5457C93.4118 19.2292 93.9919 18.7876 94.453 18.221C94.9145 17.654 95.2245 17.0083 95.3822 16.2832H92.4758C92.3442 16.6128 92.0937 16.8894 91.7246 17.1135C91.3556 17.3378 90.8807 17.4499 90.301 17.4499C89.9417 17.4499 89.6206 17.4074 89.3378 17.3222C89.1226 17.2575 88.9296 17.1683 88.7587 17.0543C88.3632 16.7908 88.0732 16.4214 87.8887 15.9471C87.8374 15.812 87.7936 15.6706 87.7567 15.5233C87.7192 15.3741 87.6888 15.2189 87.6659 15.0573H95.5802V13.9896C95.5802 13.001 95.3692 12.0914 94.9475 11.2611C94.5256 10.4173 93.9125 9.73847 93.1088 9.2244C92.3177 8.69714 91.3422 8.4335 90.1821 8.4335C89.2989 8.4335 88.5079 8.59174 87.8093 8.90809C87.1244 9.21117 86.5509 9.62638 86.0894 10.1536C85.6283 10.6809 85.2723 11.2808 85.0214 11.9531C84.7843 12.612 84.6658 13.304 84.6658 14.0291V14.4245C84.6658 15.1233 84.7843 15.8086 85.0214 16.4808C85.2723 17.1399 85.6283 17.7396 86.0894 18.2801C86.564 18.8075 87.1502 19.2292 87.8492 19.5457ZM87.7205 13.1022C87.7293 13.0603 87.7384 13.0191 87.7486 12.9785C87.776 12.8667 87.8077 12.7596 87.8436 12.6572C87.8639 12.599 87.8854 12.5421 87.9086 12.4869C88.1062 11.9991 88.3962 11.6301 88.7783 11.3796C88.9214 11.286 89.0762 11.2099 89.2424 11.1513C89.522 11.0531 89.8356 11.004 90.1821 11.004C90.7229 11.004 91.1707 11.1292 91.5267 11.3796C91.8958 11.6169 92.1727 11.9662 92.3572 12.4275C92.3723 12.4647 92.3863 12.5027 92.4 12.541C92.4219 12.6021 92.4422 12.6649 92.4611 12.7292C92.4889 12.8249 92.5134 12.9239 92.5349 13.0263C92.5506 13.1017 92.564 13.1789 92.5761 13.2581H87.6901C87.6993 13.2052 87.7094 13.1533 87.7205 13.1022Z" fill="white"/>
</svg>
